<svg width="149" height="200" viewBox="0 0 149 200" fill="none" xmlns="http://www.w3.org/2000/svg">
<path d="M138.28 69.1652C130.461 70.9744 123.056 72.5098 116.066 73.7714C116.26 73.5147 116.447 73.2531 116.627 72.9867C117.117 72.1946 117.294 71.2484 117.123 70.333C116.467 68.3209 115.647 66.3767 114.823 64.425C114.535 63.7426 114.247 63.0592 113.965 62.3717C113.284 60.691 112.948 59.2226 115.38 58.683C116.53 58.4176 116.477 57.6303 116.079 56.5865C114.292 51.8399 112.53 47.085 110.768 42.3299C108.875 37.2219 106.982 32.1137 105.058 27.0149C103.617 23.1958 102.102 19.4056 100.586 15.6133C99.8867 13.8631 99.1869 12.1124 98.4942 10.3582C98.2257 9.67766 97.9512 8.99896 97.6766 8.32017C96.9018 6.4049 96.1268 4.48896 95.4868 2.52961C95.4517 2.1499 95.5145 1.76753 95.6694 1.41906C95.8243 1.0706 96.0659 0.767687 96.3713 0.539296C96.4739 0.49418 96.583 0.43986 96.6966 0.383303C97.474 -0.00369597 98.4616 -0.495388 99.0249 1.14081C100.176 4.42846 101.418 7.69096 102.658 10.9456C103.22 12.4198 103.781 13.8924 104.332 15.3649C105.077 17.3195 105.842 19.2691 106.607 21.2181C107.604 23.7586 108.6 26.2981 109.551 28.846C112.671 36.9959 115.79 45.1489 118.909 53.3047C119.175 53.9927 119.414 54.6951 119.647 55.3775C119.78 55.7655 119.91 56.147 120.042 56.5158C120.285 56.5475 120.532 56.5475 120.776 56.5158C123.269 55.4265 124.205 54.8326 124.737 55.0862C125.28 55.3454 125.401 56.4898 126.331 58.8953C126.782 60.063 127.215 61.2218 127.658 62.4336L128.118 61.7525C128.464 61.8812 128.835 61.9833 129.206 62.0854C130.008 62.3064 130.81 62.5275 131.373 63.0175C133.706 65.0323 136.001 67.0906 138.28 69.1652Z" fill="#2D4356"/>
<path fill-rule="evenodd" clip-rule="evenodd" d="M102.329 55.2852C103.098 54.5575 103.887 53.8109 104.767 53.1136C104.282 52.9127 103.845 52.7274 103.441 52.5561C102.352 52.0939 101.505 51.7346 100.601 51.4506C92.1508 48.4371 83.6975 45.4207 75.2413 42.4013C74.0206 41.959 73.2156 42.2156 72.9061 43.569C72.5931 44.964 72.275 46.3556 71.957 47.7469C71.5472 49.5403 71.1374 51.333 70.7389 53.1313C70.186 55.6445 69.6446 58.1605 69.0983 60.6989C68.6833 62.6278 68.2654 64.5695 67.8376 66.5328H63.8572C63.6709 65.6518 63.4914 64.7845 63.3136 63.9248C63.086 62.825 62.861 61.7376 62.6277 60.6503C62.4987 60.0564 62.3637 59.4639 62.2287 58.8717C61.8731 57.3113 61.518 55.7525 61.2743 54.1751C61.2729 53.8316 61.3522 53.4925 61.5059 53.1852C61.6595 52.8779 61.8832 52.611 62.1588 52.406C63.4304 51.5943 64.782 50.9155 66.1924 50.3803C68.846 49.3188 69.1821 48.0007 66.9885 46.2846C66.9412 46.2481 66.8941 46.2117 66.8471 46.1755C65.5327 45.1615 64.3897 44.2797 65.6793 42.3836C65.8246 42.1338 65.779 41.7391 65.7307 41.3196C65.7054 41.1003 65.6793 40.8743 65.6793 40.6587C61.9819 42.2775 61.9819 44.887 65.8916 48.4253C65.5365 48.5626 65.1863 48.7453 64.8555 48.9178C64.2059 49.2566 63.6307 49.5566 63.238 49.3984C60.9141 48.4601 58.7197 49.0529 56.5492 49.6393C56.0595 49.7716 55.571 49.9036 55.0825 50.0176C54.7782 50.1769 54.519 50.4104 54.3289 50.6964C54.1387 50.9825 54.0237 51.3118 53.9945 51.6541C54.3755 54.1446 54.9131 56.6087 55.6044 59.0315C56.4889 62.1629 55.4186 64.0559 52.0662 64.339C50.781 64.4333 49.484 64.4019 48.1857 64.3705C47.536 64.3547 46.886 64.339 46.2371 64.339H41.0006C41.1986 64.0855 41.4039 63.8339 41.61 63.5813C42.9503 61.9387 44.3253 60.2536 43.9726 57.7312C43.8326 56.4304 43.3492 55.1904 42.572 54.138C41.7949 53.0857 40.7518 52.2589 39.5499 51.7425C37.0732 50.513 34.3576 50.513 32.3674 52.2821C31.1002 53.4072 30.1743 54.9167 29.2848 56.3669C28.9014 56.9919 28.5247 57.606 28.1304 58.1735C27.6226 57.406 27.086 56.6044 26.5332 55.7787C25.3529 54.0154 24.0988 52.1421 22.8939 50.2564C22.1244 49.0622 21.6556 48.8322 20.7268 50.2564C17.5224 55.1974 14.2857 60.1141 11.0464 65.0349C10.2351 66.2674 9.42354 67.5002 8.6123 68.7336C35.0291 74.9409 56.7926 78.073 73.9025 78.13C74.6304 77.4608 75.303 76.7329 75.9135 75.9536C78.9652 72.6806 82.0522 69.4254 85.157 66.2232C86.9261 64.4098 87.4037 64.5601 88.9605 66.5593C91.6084 69.9594 94.3228 73.3063 97.046 76.6519C100.167 76.2815 103.393 75.8416 106.724 75.3322L95.4177 59.3853C98.4445 58.963 100.319 57.1888 102.329 55.2852Z" fill="#2D4356"/>
<path d="M38.9429 141.156L0.719182 74.3394C-0.93076 71.4562 0.354728 69.7555 3.58835 70.5448C32.5231 77.61 56.1138 81.1437 74.3603 81.1459C92.6069 81.1459 116.205 77.6122 145.155 70.5448C148.389 69.7555 149.674 71.4562 148.025 74.3394L125.247 114.145C124.114 114.085 122.944 114.287 121.404 114.584C112.223 115.789 97.1514 121.215 90.7802 124.726C96.4258 122.497 110.285 121.377 121.39 120.882L77.352 197.837C75.6988 200.721 73.0218 200.721 71.3719 197.837L41.865 146.265C51.1451 144.432 61.3728 141.113 67.8633 136.803C65.6302 138.484 49.9624 141.202 38.9429 141.156Z" fill="#2D4356"/>
</svg>
